<!DOCTYPE svg PUBLIC "-//W3C//DTD SVG 1.1//EN" "http://www.w3.org/Graphics/SVG/1.1/DTD/svg11.dtd">

<!-- Uploaded to: SVG Repo, www.svgrepo.com, Transformed by: SVG Repo Mixer Tools -->
<svg width="1000px" height="1000px" viewBox="-14.6 -14.6 175.20 175.20" xmlns="http://www.w3.org/2000/svg"
    fill="#000000" stroke="#000000">

    <g id="SVGRepo_bgCarrier" stroke-width="0">

        <path transform="translate(-14.6, -14.6), scale(5.475)"
            d="M16,26.432371890172362C17.322490226506016,25.56095239675369,18.07785967807294,23.958710645250704,19.54253235793875,23.356144239309664C21.1375613118934,22.699949500383917,22.996899734858495,23.437261202503112,24.629829724534257,22.882059555902437C26.96243261457428,22.088966787930882,30.73682727068375,21.880273758466277,31.06496276551797,19.438479443160062C31.41169838335578,16.858273784585073,26.728431340720476,16.203424655075143,25.85699514770813,13.750205180440247C25.131482691088255,11.70778222171782,28.34918433980648,8.900283895717688,26.787626067906515,7.3971552816304325C25.097430599111703,5.770202757178715,22.208039831023033,8.015791765892919,19.862311409660983,7.979827717613507C18.534456681662174,7.95946942246267,17.21187629777051,7.7748724386282095,16,7.231762433424592C13.837031024376934,6.262414246842299,12.38028147597732,3.6548357913642175,10.01172896976361,3.5652270772398627C7.844371734188229,3.4832301215386394,5.714242922709916,5.027455218651932,4.457388359605803,6.7950743785813525C3.2036460243851668,8.558316553457455,3.885056877131813,11.022410728542203,3.240770673193822,13.087789167909062C2.5351303680178163,15.3498495121331,-0.34487343719284336,17.321125138081456,0.48100379698089135,19.542109612424625C1.3588435458423191,21.90283390958136,5.4029260239535315,21.22958854537091,6.994261253401694,23.181836997639323C8.559923516109846,25.102589880240302,6.833372051302764,29.353366213372993,9.164211811831933,30.194660435167428C11.641703608124683,31.088887300548773,13.800605889219295,27.881603698038436,16,26.432371890172362"
            fill="#6F96DC" strokewidth="0" />

    </g>

    <g id="SVGRepo_tracerCarrier" stroke-linecap="round" stroke-linejoin="round" />

    <g id="SVGRepo_iconCarrier">
        <title>001-business</title>
        <line x1="77.12" y1="1.21" x2="80.32" y2="4.41" fill="none" stroke="#D0D4DD" stroke-linecap="round"
            stroke-miterlimit="10" stroke-width="1.6" />
        <line x1="80.32" y1="1.21" x2="77.12" y2="4.41" fill="none" stroke="#D0D4DD" stroke-linecap="round"
            stroke-miterlimit="10" stroke-width="1.6" />
        <circle cx="14.92" cy="143" r="1.6" fill="#b8b9ba" />
        <circle cx="29.72" cy="142.6" r="2" fill="none" stroke="#b8b9ba" stroke-linecap="round" stroke-miterlimit="10"
            stroke-width="1.6" />
        <circle cx="97.32" cy="6.2" r="1.6" fill="#b8b9ba" />
        <path
            d="M11.34,124.35l2.19-1.15a0.16,0.16,0,0,1,.23.17l-0.42,2.43,1.77,1.72a0.16,0.16,0,0,1-.09.27l-2.44.36-1.09,2.21a0.16,0.16,0,0,1-.29,0l-1.09-2.21-2.44-.36a0.16,0.16,0,0,1-.09-0.27l1.77-1.72-0.42-2.43a0.16,0.16,0,0,1,.23-0.17Z"
            fill="#85bee1" />
        <circle cx="101.72" cy="19.4" r="2" fill="none" stroke="#b8b9ba" stroke-linecap="round" stroke-miterlimit="10"
            stroke-width="1.6" />
        <path d="M93.19,65.73v19.2h-8V74.75a10.72,10.72,0,0,1,7.7-10Z" fill="#ffffff" />
        <path
            d="M103.59,102.93a6.78,6.78,0,0,1-3.2,5.76v9.84a0.8,0.8,0,0,1-.8.8H94a0.8,0.8,0,0,1-.8-0.8v-9.84A6.8,6.8,0,1,1,103.59,102.93Z"
            fill="#ffffff" />
        <path
            d="M82.79,61.22A19.38,19.38,0,0,1,93.2,55.66a18.9,18.9,0,0,1,3.58-.34,19.6,19.6,0,0,1,19.6,19.6v10h-8V74.75c0-5.87-5.19-10.62-11.6-10.62a12.46,12.46,0,0,0-3.9.62,10.72,10.72,0,0,0-7.7,10V84.93h-8v-10A19.47,19.47,0,0,1,82.79,61.22Z"
            fill="#d8dadf" />
        <path
            d="M125.19,88.93v39.2a4,4,0,0,1-4,4H72.39l-0.41,0a4,4,0,0,1-3.59-4V88.93a4,4,0,0,1,4-4h48.8A4,4,0,0,1,125.19,88.93Zm-24.8,19.76a6.8,6.8,0,1,0-7.2,0v9.84a0.8,0.8,0,0,0,.8.8h5.6a0.8,0.8,0,0,0,.8-0.8v-9.84Z"
            fill="#D0D4DD" />
        <path
            d="M82.79,46.53v14.7a19.47,19.47,0,0,0-5.6,13.7v10h-4.8a4,4,0,0,0-4,4v23.2H31.63a0.82,0.82,0,0,1-.84-0.8V29.73a0.82,0.82,0,0,1,.84-0.8H81.95a0.82,0.82,0,0,1,.84.8v16.8Z"
            fill="#85bee1" />
        <path
            d="M68.39,128.13a4,4,0,0,0,3.59,4v0H27.2A5,5,0,0,1,22,127.36V17.69a5,5,0,0,1,5.21-4.77H88a5,5,0,0,1,5.21,4.77V55.57l0,0.09a19.38,19.38,0,0,0-10.42,5.56V29.73a0.82,0.82,0,0,0-.84-0.8H31.63a0.82,0.82,0,0,0-.84.8v81.6a0.82,0.82,0,0,0,.84.8H68.39v16Z"
            fill="#ffffff" />
        <polyline points="93.19 55.57 93.19 17.69 93.19 16.69" fill="none" stroke="#121620" stroke-miterlimit="10"
            stroke-width="2.4" />
        <path d="M77.19,84.13v-9.2a19.62,19.62,0,0,1,16-19.26,18.9,18.9,0,0,1,3.58-.34,19.6,19.6,0,0,1,19.6,19.6v9.2"
            fill="none" stroke="#121620" stroke-linecap="round" stroke-miterlimit="10" stroke-width="2.4" />
        <path
            d="M103.59,102.93a6.8,6.8,0,1,0-10.4,5.76v9.84a0.8,0.8,0,0,0,.8.8h5.6a0.8,0.8,0,0,0,.8-0.8v-9.84A6.78,6.78,0,0,0,103.59,102.93Z"
            fill="none" stroke="#121620" stroke-linecap="round" stroke-miterlimit="10" stroke-width="2.4" />
        <path d="M85.19,84.13V74.75a10.72,10.72,0,0,1,7.7-10,12.46,12.46,0,0,1,3.9-.62c6.41,0,11.6,4.75,11.6,10.62v9.38"
            fill="none" stroke="#121620" stroke-linecap="round" stroke-miterlimit="10" stroke-width="2.4" />
        <line x1="93.19" y1="65.73" x2="93.19" y2="84.93" fill="none" stroke="#121620" stroke-miterlimit="10"
            stroke-width="2.4" />
        <line x1="134" y1="131" x2="134" y2="137" fill="none" stroke="#b8b9ba" stroke-linecap="round"
            stroke-miterlimit="10" stroke-width="2" />
        <line x1="137" y1="134" x2="131" y2="134" fill="none" stroke="#b8b9ba" stroke-linecap="round"
            stroke-miterlimit="10" stroke-width="2" />
        <path
            d="M52,78.34a6.14,6.14,0,0,0,4.3,3c3.12,0.61,6.07-1,6.58-3.6S61.24,72.57,58.12,72l-1.6-.32c-3.12-.61-5.24-3.22-4.72-5.82s3.46-4.21,6.58-3.6a6.26,6.26,0,0,1,4,2.57"
            fill="none" stroke="#121620" stroke-linecap="round" stroke-miterlimit="10" stroke-width="2.4" />
        <line x1="57.3" y1="59.32" x2="57.3" y2="61.24" fill="none" stroke="#121620" stroke-linecap="round"
            stroke-miterlimit="10" stroke-width="2.4" />
        <line x1="57.94" y1="82.36" x2="57.94" y2="84.28" fill="none" stroke="#121620" stroke-linecap="round"
            stroke-miterlimit="10" stroke-width="2.4" />
        <line x1="49.19" y1="21.73" x2="64.39" y2="21.73" fill="none" stroke="#121620" stroke-linecap="round"
            stroke-miterlimit="10" stroke-width="2.4" />
        <circle cx="57.32" cy="122.2" r="2.4" fill="#121620" />
        <path d="M82.09,30H31.75c-0.46,0-1.75,0-1.75.41V34H83V30.41C83,30,82.55,30,82.09,30Z" fill="#85bee1" />
        <path d="M68,132.13V87.33h-2.4c-1.33,0-2.4,1.82-2.4,3.08v41.72H68Z" fill="#c3c7cd" />
        <path d="M68,112.79V87.33h-2.4a2.63,2.63,0,0,0-2.4,2.09v23.37H68Z" fill="#85bee1" />
        <path d="M93.19,17.69A5,5,0,0,0,88,12.93H27.2A5,5,0,0,0,22,17.69V127.36a5,5,0,0,0,5.21,4.77H72" fill="none"
            stroke="#121620" stroke-miterlimit="10" stroke-width="2.4" />
        <path
            d="M68.35,112.13H32.43a0.82,0.82,0,0,1-.84-0.8V29.73a0.82,0.82,0,0,1,.84-0.8H82.75a0.82,0.82,0,0,1,.84.8v32"
            fill="none" stroke="#121620" stroke-miterlimit="10" stroke-width="2.4" />
        <g opacity="0.8">
            <path
                d="M71,131.93V94.33c0-2.21,2.29-3.67,4.49-3.67L119.59,89h4.8a0.82,0.82,0,0,0-.39-0.23v0c0-2.21-.6-3.73-2.81-3.73H72.39C70.18,85,68,86.53,68,88.73v39.2a4.11,4.11,0,0,0,3.31,4.14S71,132,71,131.93Z"
                fill="#6F96DC" />
        </g>
        <path
            d="M116.39,84.93h4.8a4,4,0,0,1,4,4v39.2a4,4,0,0,1-4,4H72.39l-0.41,0a4,4,0,0,1-3.59-4V88.93a4,4,0,0,1,4-4h44Z"
            fill="none" stroke="#121620" stroke-linecap="round" stroke-miterlimit="10" stroke-width="2.4" />
    </g>

</svg>